<?xml version="1.0" encoding="iso-8859-1"?>
<!-- Uploaded to: SVG Repo, www.svgrepo.com, Generator: SVG Repo Mixer Tools -->
<svg height="800px" width="800px" version="1.1" id="Layer_1" xmlns="http://www.w3.org/2000/svg" xmlns:xlink="http://www.w3.org/1999/xlink" 
	 viewBox="0 0 512 512" xml:space="preserve">
<path style="fill:#2C3E50;" d="M410.463,512H101.538c-25.399,0-46.062-20.663-46.062-46.062V46.062C55.476,20.663,76.14,0,101.538,0
	h308.923c25.399,0,46.062,20.663,46.062,46.062v419.876C456.525,491.337,435.86,512,410.463,512z"/>
<path style="fill:#22313F;" d="M410.463,0H256v512h154.462c25.399,0,46.062-20.663,46.062-46.062V46.062
	C456.525,20.663,435.86,0,410.463,0z"/>
<path style="fill:#FFDA79;" d="M370.981,422.337H141.02c-10.902,0-19.741-8.839-19.741-19.741V85.544
	c0-10.902,8.839-19.741,19.741-19.741h229.96c10.902,0,19.741,8.839,19.741,19.741v317.053
	C390.722,413.498,381.883,422.337,370.981,422.337z"/>
<path style="fill:#FFD155;" d="M370.981,65.803H256v356.534h114.98c10.902,0,19.741-8.839,19.741-19.741V85.544
	C390.722,74.641,381.883,65.803,370.981,65.803z"/>
<g>
	<circle style="fill:#C7E9F4;" cx="256" cy="468.7" r="15.845"/>
	<circle style="fill:#C7E9F4;" cx="190.197" cy="468.7" r="15.845"/>
</g>
<g>
	<path style="fill:#FFC72D;" d="M287.585,167.41h-63.171c-10.902,0-19.741-8.839-19.741-19.741c0-10.902,8.839-19.741,19.741-19.741
		h63.171c10.902,0,19.741,8.839,19.741,19.741S298.489,167.41,287.585,167.41z"/>
	<path style="fill:#FFC72D;" d="M312.59,243.102H199.41c-10.902,0-19.741-8.839-19.741-19.741s8.839-19.741,19.741-19.741H312.59
		c10.902,0,19.741,8.839,19.741,19.741S323.494,243.102,312.59,243.102z"/>
	<path style="fill:#FFC72D;" d="M312.59,301.657H199.41c-10.902,0-19.741-8.839-19.741-19.741c0-10.902,8.839-19.741,19.741-19.741
		H312.59c10.902,0,19.741,8.839,19.741,19.741C332.331,292.819,323.494,301.657,312.59,301.657z"/>
	<path style="fill:#FFC72D;" d="M312.59,360.213H199.41c-10.902,0-19.741-8.839-19.741-19.741c0-10.902,8.839-19.741,19.741-19.741
		H312.59c10.902,0,19.741,8.839,19.741,19.741C332.331,351.374,323.494,360.213,312.59,360.213z"/>
</g>
<g>
	<path style="fill:#FFBE00;" d="M287.585,127.929H256v39.482h31.585c10.902,0,19.741-8.839,19.741-19.741
		C307.326,136.766,298.489,127.929,287.585,127.929z"/>
	<path style="fill:#FFBE00;" d="M312.59,203.62H256v39.482h56.59c10.902,0,19.741-8.839,19.741-19.741S323.494,203.62,312.59,203.62
		z"/>
	<path style="fill:#FFBE00;" d="M312.59,262.176H256v39.482h56.59c10.902,0,19.741-8.839,19.741-19.741
		C332.331,271.014,323.494,262.176,312.59,262.176z"/>
	<path style="fill:#FFBE00;" d="M312.59,320.731H256v39.482h56.59c10.902,0,19.741-8.839,19.741-19.741
		C332.331,329.568,323.494,320.731,312.59,320.731z"/>
</g>
<g>
	<path style="fill:#80D0E1;" d="M256,452.851v31.704c8.754,0,15.852-7.098,15.852-15.852
		C271.853,459.949,264.756,452.851,256,452.851z"/>
	<circle style="fill:#80D0E1;" cx="321.803" cy="468.7" r="15.845"/>
</g>
</svg>