<?xml version="1.0" encoding="iso-8859-1"?>
<!-- Uploaded to: SVG Repo, www.svgrepo.com, Generator: SVG Repo Mixer Tools -->
<svg height="800px" width="800px" version="1.1" id="Layer_1" xmlns="http://www.w3.org/2000/svg" xmlns:xlink="http://www.w3.org/1999/xlink" 
	 viewBox="0 0 508 508" xml:space="preserve">
<path style="fill:#FFFFFF;" d="M419.85,28.2H88.25c-7.8,0-14.1,6.3-14.1,14.1v184.3c0,7.8,6.3,14.1,14.1,14.1h331.5
	c7.8,0,14.1-6.3,14.1-14.1V42.3C433.95,34.6,427.55,28.2,419.85,28.2z"/>
<path style="fill:#194F82;" d="M419.85,0H88.25c-23.3,0-42.3,19-42.3,42.3v184.3c0,23.3,19,42.3,42.3,42.3h331.5
	c23.3,0,42.3-19,42.3-42.3V42.3C462.15,19,443.15,0,419.85,0z M433.95,226.6c0,7.8-6.3,14.1-14.1,14.1H88.25
	c-7.8,0-14.1-6.3-14.1-14.1V42.3c0-7.8,6.3-14.1,14.1-14.1h331.5c7.8,0,14.1,6.3,14.1,14.1v184.3H433.95z"/>
<path style="fill:#FFC10D;" d="M391.55,56.4h-275c-7.8,0-14.1,6.3-14.1,14.1v23.2h52.3c7.8,0,14.1,6.3,14.1,14.1
	s-6.3,14.1-14.1,14.1h-52.3V147h25.6c7.8,0,14.1,6.3,14.1,14.1s-6.3,14.1-14.1,14.1h-25.7v23.2c0,7.8,6.3,14.1,14.1,14.1h275.1
	c7.8,0,14.1-6.3,14.1-14.1V70.6C405.75,62.8,399.35,56.4,391.55,56.4z"/>
<path style="fill:#56ACE0;" d="M148.75,364.3c11.5,0,20.8-9.3,20.8-20.8s-9.4-20.9-20.8-20.9s-20.8,9.4-20.8,20.9
	S137.25,364.3,148.75,364.3z"/>
<path style="fill:#FFC10D;" d="M177.85,434l-16.8,29.7c-5.4,9.6-19.2,9.6-24.6,0l-16.8-29.7c-18.3,8.9-31.7,26-36,45.8h130.2
	C209.55,459.9,196.15,442.9,177.85,434z"/>
<path style="fill:#FFFFFF;" d="M380.15,343.4c0-11.5-9.3-20.9-20.8-20.9s-20.9,9.4-20.9,20.9s9.4,20.8,20.9,20.8
	S380.15,354.9,380.15,343.4z"/>
<path style="fill:#56ACE0;" d="M388.65,434l-16.8,29.8c-5.4,9.6-19.2,9.6-24.6,0l-16.8-29.8c-18.3,8.9-31.7,26-36,45.8h130.2
	C420.25,459.9,406.95,442.9,388.65,434z"/>
<g>
	<path style="fill:#194F82;" d="M197.85,343.4c0-27.1-22-49.1-49.1-49.1s-49.1,22-49.1,49.1s22,49.1,49.1,49.1
		S197.85,370.5,197.85,343.4z M148.75,322.6c11.5,0,20.8,9.4,20.8,20.9s-9.4,20.8-20.8,20.8s-20.8-9.3-20.8-20.8
		S137.25,322.6,148.75,322.6z"/>
	<path style="fill:#194F82;" d="M175.45,402.9c-6.3-1.9-13.1,0.9-16.3,6.6l-10.4,18.6l-10.4-18.6c-3.2-5.7-10-8.5-16.3-6.6
		c-40.1,11.8-68.2,49.2-68.2,91c0,7.8,6.3,14.1,14.1,14.1h161.5c7.8,0,14.1-6.3,14.1-14.1C243.65,452.1,215.65,414.7,175.45,402.9z
		 M83.65,479.8c4.4-19.8,17.7-36.9,36-45.8l16.8,29.8c5.4,9.6,19.2,9.6,24.6,0l16.8-29.8c18.3,8.9,31.7,26,36,45.8H83.65z"/>
	<path style="fill:#194F82;" d="M386.25,402.9c-6.3-1.9-13.1,0.9-16.3,6.6l-10.4,18.6l-10.5-18.6c-3.2-5.7-10-8.5-16.3-6.6
		c-40.1,11.8-68.2,49.2-68.2,91c0,7.8,6.3,14.1,14.1,14.1h161.5c7.8,0,14.1-6.3,14.1-14.1C454.45,452.1,426.35,414.7,386.25,402.9z
		 M294.45,479.8c4.4-19.8,17.7-36.9,36-45.8l16.8,29.8c5.4,9.6,19.2,9.6,24.6,0l16.8-29.8c18.3,8.9,31.7,26,36,45.8H294.45z"/>
	<path style="fill:#194F82;" d="M408.45,343.4c0-27.1-22-49.1-49.1-49.1s-49.1,22-49.1,49.1s22,49.1,49.1,49.1
		S408.45,370.5,408.45,343.4z M338.45,343.4c0-11.5,9.4-20.9,20.9-20.9s20.8,9.4,20.8,20.9s-9.3,20.8-20.8,20.8
		S338.45,354.9,338.45,343.4z"/>
</g>
</svg>