<?xml version="1.0" encoding="iso-8859-1"?>
<!-- Uploaded to: SVG Repo, www.svgrepo.com, Generator: SVG Repo Mixer Tools -->
<svg version="1.1" id="Layer_1" xmlns="http://www.w3.org/2000/svg" xmlns:xlink="http://www.w3.org/1999/xlink" 
	 viewBox="0 0 512 512" xml:space="preserve">
<g>
	<polygon style="fill:#DDB200;" points="152.507,353.506 152.507,405.249 91.395,405.249 91.395,335.784 152.507,335.784 	"/>
	<polygon style="fill:#DDB200;" points="420.606,353.506 420.606,405.249 359.493,405.249 359.493,335.784 420.606,335.784 	"/>
</g>
<path style="fill:#FFE477;" d="M410.452,353.506h-309.2V116.621c0-5.43,4.442-9.872,9.872-9.872h289.457
	c5.43,0,9.872,4.442,9.872,9.872L410.452,353.506L410.452,353.506z"/>
<g>
	<polygon style="fill:#FFEB99;" points="101.252,190.048 7.575,190.048 31.205,297.648 7.575,405.249 152.507,405.249 
		101.252,353.506 	"/>
	<polygon style="fill:#FFEB99;" points="410.749,190.048 504.425,190.048 480.795,297.648 504.425,405.249 359.493,405.249 
		410.452,353.506 	"/>
</g>
<g>
	<polygon style="fill:#DDB200;" points="225.714,239.481 199.922,212.619 236.759,207.161 254.336,174.332 270.911,207.678 
		307.565,214.25 280.972,240.318 286.048,277.209 253.038,259.973 219.522,276.201 	"/>
	<g style="opacity:0.33;">
		<polygon style="fill:#DDB200;" points="16.482,364.017 7.427,405.249 91.245,405.249 152.358,405.249 152.358,364.017 
			91.245,364.017 		"/>
		<rect x="101.257" y="312.273" style="fill:#DDB200;" width="309.203" height="41.232"/>
		<polygon style="fill:#DDB200;" points="420.457,364.017 359.345,364.017 359.345,405.249 420.457,405.249 504.276,405.249 
			495.221,364.017 		"/>
	</g>
</g>
<path d="M224.636,241.979l-5.559,32.963c-0.472,2.795,0.657,5.619,2.925,7.32c2.267,1.701,5.295,1.993,7.847,0.758l30.088-14.568
	l29.632,15.473c1.103,0.576,2.306,0.861,3.506,0.861c1.533,0,3.059-0.465,4.36-1.38c2.318-1.631,3.531-4.42,3.144-7.228
	l-4.557-33.116l23.871-23.401c2.024-1.985,2.772-4.932,1.936-7.641c-0.834-2.709-3.112-4.725-5.903-5.225l-32.902-5.899
	l-14.879-29.936c-1.262-2.538-3.834-4.159-6.669-4.203c-2.834-0.013-5.454,1.5-6.794,3.999l-15.778,29.47l-33.068,4.901
	c-2.803,0.415-5.141,2.361-6.057,5.044c-0.917,2.682-0.26,5.651,1.704,7.697L224.636,241.979z M244.895,214.654
	c2.372-0.352,4.436-1.805,5.568-3.918l10.648-19.889l10.042,20.203c1.067,2.146,3.087,3.661,5.447,4.085l22.205,3.981l-16.11,15.793
	c-1.712,1.679-2.529,4.067-2.202,6.442l3.076,22.349l-19.998-10.442c-1.098-0.573-2.301-0.861-3.507-0.861
	c-1.128,0-2.257,0.253-3.302,0.758l-20.306,9.832l3.751-22.246c0.399-2.363-0.345-4.776-2.005-6.506l-15.625-16.274L244.895,214.654
	z"/>
<path d="M488.55,297.648l23.273-105.975c0.492-2.241-0.058-4.585-1.495-6.372c-1.437-1.788-3.609-2.828-5.904-2.828h-86.398v-65.851
	c0-9.621-7.827-17.447-17.446-17.447H111.124c-9.62,0-17.446,7.827-17.446,17.447v65.851H7.575c-2.294,0-4.465,1.04-5.904,2.828
	c-1.438,1.788-1.988,4.131-1.495,6.372L23.45,297.648L0.177,403.624c-0.492,2.241,0.058,4.585,1.495,6.372
	c1.437,1.788,3.609,2.828,5.904,2.828h144.932c0.345,0,0.684-0.031,1.017-0.076c0.078-0.01,0.155-0.022,0.232-0.035
	c0.328-0.055,0.652-0.123,0.966-0.219c0.001,0,0.002-0.001,0.003-0.001c0.325-0.1,0.638-0.225,0.944-0.367
	c0.06-0.027,0.117-0.057,0.177-0.085c0.29-0.142,0.572-0.298,0.838-0.475c0.01-0.006,0.02-0.012,0.03-0.018
	c0.273-0.183,0.529-0.387,0.776-0.602c0.059-0.05,0.115-0.103,0.172-0.156c0.233-0.217,0.457-0.444,0.661-0.689
	c0.007-0.008,0.014-0.015,0.021-0.023c0.213-0.258,0.404-0.533,0.582-0.818c0.036-0.058,0.071-0.115,0.106-0.174
	c0.345-0.587,0.613-1.223,0.791-1.897c0.017-0.064,0.033-0.126,0.049-0.19c0.078-0.326,0.139-0.659,0.174-1
	c0.002-0.017,0.001-0.034,0.003-0.051c0.021-0.23,0.035-0.464,0.035-0.7v-44.168h191.834v44.168c0,0.244,0.014,0.485,0.036,0.723
	c0.001,0.013,0,0.026,0.002,0.038c0.033,0.339,0.097,0.669,0.174,0.994c0.016,0.067,0.033,0.133,0.052,0.2
	c0.179,0.67,0.445,1.302,0.789,1.885c0.036,0.062,0.073,0.121,0.11,0.182c0.177,0.281,0.366,0.553,0.577,0.809
	c0.013,0.016,0.029,0.03,0.042,0.046c0.199,0.235,0.414,0.455,0.639,0.664c0.059,0.055,0.117,0.109,0.178,0.162
	c0.244,0.214,0.499,0.416,0.771,0.597c0.015,0.01,0.03,0.018,0.045,0.028c0.263,0.173,0.538,0.325,0.822,0.466
	c0.061,0.029,0.12,0.059,0.181,0.087c0.304,0.139,0.616,0.266,0.94,0.365c0.004,0.001,0.007,0.002,0.011,0.003
	c0.31,0.094,0.631,0.163,0.957,0.217c0.078,0.013,0.155,0.025,0.233,0.035c0.333,0.044,0.67,0.076,1.015,0.076h144.932
	c2.294,0,4.465-1.04,5.904-2.828c1.438-1.788,1.988-4.131,1.495-6.372L488.55,297.648z M108.827,116.621
	c0-1.244,1.051-2.297,2.296-2.297h21.721v60.007c0,4.184,3.391,7.575,7.575,7.575s7.575-3.392,7.575-7.575v-60.007H400.58
	c1.244,0,2.296,1.052,2.296,2.297v229.308H108.827V116.621z M16.995,397.673l21.61-98.4c0.235-1.071,0.235-2.18,0-3.25l-21.61-98.4
	h76.681v155.882c0,0.082,0.01,0.161,0.012,0.241c0.005,0.163,0.009,0.324,0.024,0.486c0.012,0.123,0.033,0.242,0.051,0.364
	c0.018,0.123,0.032,0.246,0.057,0.369c0.025,0.13,0.06,0.258,0.092,0.385c0.028,0.111,0.053,0.223,0.086,0.334
	c0.037,0.126,0.084,0.248,0.127,0.371c0.039,0.11,0.076,0.22,0.12,0.329c0.048,0.117,0.104,0.229,0.158,0.343
	c0.052,0.11,0.101,0.221,0.159,0.328c0.059,0.11,0.125,0.216,0.189,0.323c0.063,0.105,0.122,0.211,0.19,0.313
	c0.076,0.114,0.16,0.222,0.242,0.332c0.066,0.088,0.127,0.178,0.197,0.264c0.114,0.139,0.236,0.271,0.36,0.401
	c0.044,0.047,0.084,0.099,0.13,0.145l0.024,0.024l0.001,0.001l38.445,38.812H16.995V397.673z M144.932,386.837l-25.514-25.757
	h25.514V386.837z M392.359,361.08l-25.29,25.68v-25.68H392.359z M377.586,397.673l38.263-38.853
	c0.058-0.059,0.106-0.121,0.162-0.181c0.108-0.117,0.217-0.234,0.318-0.358c0.074-0.09,0.138-0.185,0.207-0.278
	c0.078-0.105,0.158-0.209,0.231-0.319c0.07-0.105,0.131-0.214,0.196-0.322c0.062-0.104,0.125-0.207,0.183-0.314
	c0.059-0.111,0.11-0.225,0.163-0.338c0.053-0.111,0.105-0.22,0.151-0.334c0.046-0.112,0.084-0.226,0.125-0.34
	c0.042-0.119,0.086-0.237,0.122-0.36c0.034-0.115,0.061-0.232,0.09-0.348c0.03-0.123,0.064-0.245,0.088-0.371
	c0.024-0.127,0.04-0.256,0.059-0.384c0.016-0.116,0.036-0.231,0.047-0.348c0.015-0.158,0.019-0.315,0.024-0.474
	c0.002-0.083,0.012-0.163,0.012-0.246V197.622h76.978l-21.61,98.4c-0.235,1.071-0.235,2.18,0,3.25l21.61,98.4h-117.42V397.673z"/>
<path d="M140.419,328.783c4.185,0,7.575-3.392,7.575-7.575v-72.502c0-4.184-3.391-7.575-7.575-7.575s-7.575,3.392-7.575,7.575
	v72.502C132.844,325.391,136.235,328.783,140.419,328.783z"/>
<path d="M359.493,319.225c4.185,0,7.575-3.392,7.575-7.575v-44.942c0-4.184-3.391-7.575-7.575-7.575
	c-4.185,0-7.575,3.392-7.575,7.575v44.942C351.918,315.833,355.309,319.225,359.493,319.225z"/>
</svg>